<mxfile host="app.diagrams.net" modified="2023-02-17T12:38:21.553Z" agent="5.0 (Macintosh)" etag="zwqZrs4-1mO5dbFhD7Yx" version="20.8.20" type="github">
  <diagram id="C5RBs43oDa-KdzZeNtuy" name="Page-1">
    <mxGraphModel dx="954" dy="1786" grid="1" gridSize="10" guides="1" tooltips="1" connect="1" arrows="1" fold="1" page="1" pageScale="1" pageWidth="827" pageHeight="1169" math="0" shadow="0">
      <root>
        <mxCell id="WIyWlLk6GJQsqaUBKTNV-0" />
        <mxCell id="WIyWlLk6GJQsqaUBKTNV-1" parent="WIyWlLk6GJQsqaUBKTNV-0" />
        <mxCell id="VztmP7jNm2-bDzNmiWcb-14" value="&lt;p style=&quot;line-height: 0%;&quot;&gt;Tiling&lt;/p&gt;" style="rounded=1;whiteSpace=wrap;html=1;absoluteArcSize=1;arcSize=14;strokeWidth=2;glass=0;fillColor=#dae8fc;horizontal=1;verticalAlign=top;strokeColor=#6c8ebf;fontStyle=1" parent="WIyWlLk6GJQsqaUBKTNV-1" vertex="1">
          <mxGeometry x="502" y="100" width="370" height="140" as="geometry" />
        </mxCell>
        <mxCell id="ZryX_eBv5wf3s4xxrK_H-18" style="edgeStyle=orthogonalEdgeStyle;rounded=0;jumpSize=6;orthogonalLoop=1;jettySize=auto;html=1;exitX=0.5;exitY=1;exitDx=0;exitDy=0;entryX=0.25;entryY=0;entryDx=0;entryDy=0;shadow=0;strokeWidth=3;" parent="WIyWlLk6GJQsqaUBKTNV-1" source="VztmP7jNm2-bDzNmiWcb-0" target="ZryX_eBv5wf3s4xxrK_H-40" edge="1">
          <mxGeometry relative="1" as="geometry">
            <Array as="points">
              <mxPoint x="230" y="370" />
              <mxPoint x="320" y="370" />
            </Array>
          </mxGeometry>
        </mxCell>
        <mxCell id="VztmP7jNm2-bDzNmiWcb-0" value="Sequences" style="shape=parallelogram;html=1;strokeWidth=2;perimeter=parallelogramPerimeter;whiteSpace=wrap;rounded=1;arcSize=12;size=0.23;fillColor=#fff2cc;strokeColor=#d6b656;fontStyle=1" parent="WIyWlLk6GJQsqaUBKTNV-1" vertex="1">
          <mxGeometry x="180" y="10" width="100" height="40" as="geometry" />
        </mxCell>
        <mxCell id="ZryX_eBv5wf3s4xxrK_H-17" style="edgeStyle=orthogonalEdgeStyle;rounded=0;jumpSize=6;orthogonalLoop=1;jettySize=auto;html=1;exitX=0.5;exitY=1;exitDx=0;exitDy=0;entryX=0.5;entryY=0;entryDx=0;entryDy=0;shadow=0;strokeWidth=3;" parent="WIyWlLk6GJQsqaUBKTNV-1" source="VztmP7jNm2-bDzNmiWcb-1" target="VztmP7jNm2-bDzNmiWcb-20" edge="1">
          <mxGeometry relative="1" as="geometry">
            <Array as="points">
              <mxPoint x="325" y="220" />
              <mxPoint x="368" y="220" />
            </Array>
          </mxGeometry>
        </mxCell>
        <mxCell id="KMl1CAoWez4GiMPMboV8-2" style="edgeStyle=orthogonalEdgeStyle;rounded=0;orthogonalLoop=1;jettySize=auto;html=1;exitX=0.5;exitY=0;exitDx=0;exitDy=0;strokeWidth=3;" edge="1" parent="WIyWlLk6GJQsqaUBKTNV-1" source="VztmP7jNm2-bDzNmiWcb-1">
          <mxGeometry relative="1" as="geometry">
            <mxPoint x="490" y="489" as="targetPoint" />
            <Array as="points">
              <mxPoint x="325" y="-10" />
              <mxPoint x="490" y="-10" />
              <mxPoint x="490" y="489" />
            </Array>
          </mxGeometry>
        </mxCell>
        <mxCell id="VztmP7jNm2-bDzNmiWcb-1" value="Regions" style="shape=parallelogram;html=1;strokeWidth=2;perimeter=parallelogramPerimeter;whiteSpace=wrap;rounded=1;arcSize=12;size=0.23;fillColor=#fff2cc;strokeColor=#d6b656;fontStyle=1" parent="WIyWlLk6GJQsqaUBKTNV-1" vertex="1">
          <mxGeometry x="275" y="10" width="100" height="40" as="geometry" />
        </mxCell>
        <mxCell id="VztmP7jNm2-bDzNmiWcb-18" style="edgeStyle=orthogonalEdgeStyle;rounded=0;orthogonalLoop=1;jettySize=auto;html=1;entryX=0.5;entryY=0;entryDx=0;entryDy=0;strokeWidth=3;" parent="WIyWlLk6GJQsqaUBKTNV-1" source="VztmP7jNm2-bDzNmiWcb-3" target="VztmP7jNm2-bDzNmiWcb-17" edge="1">
          <mxGeometry relative="1" as="geometry" />
        </mxCell>
        <mxCell id="VztmP7jNm2-bDzNmiWcb-3" value="Variants" style="shape=parallelogram;html=1;strokeWidth=2;perimeter=parallelogramPerimeter;whiteSpace=wrap;rounded=1;arcSize=12;size=0.23;fillColor=#fff2cc;strokeColor=#d6b656;fontStyle=1" parent="WIyWlLk6GJQsqaUBKTNV-1" vertex="1">
          <mxGeometry x="370" y="10" width="100" height="40" as="geometry" />
        </mxCell>
        <mxCell id="VztmP7jNm2-bDzNmiWcb-16" value="Regions" style="edgeStyle=orthogonalEdgeStyle;rounded=0;orthogonalLoop=1;jettySize=auto;html=1;exitX=0.5;exitY=1;exitDx=0;exitDy=0;entryX=0.5;entryY=0;entryDx=0;entryDy=0;strokeWidth=3;" parent="WIyWlLk6GJQsqaUBKTNV-1" source="VztmP7jNm2-bDzNmiWcb-4" target="VztmP7jNm2-bDzNmiWcb-14" edge="1">
          <mxGeometry relative="1" as="geometry" />
        </mxCell>
        <mxCell id="ZryX_eBv5wf3s4xxrK_H-12" value="Variants" style="edgeStyle=orthogonalEdgeStyle;rounded=0;orthogonalLoop=1;jettySize=auto;html=1;exitX=1;exitY=0.5;exitDx=0;exitDy=0;entryX=1;entryY=0.25;entryDx=0;entryDy=0;shadow=0;jumpSize=6;strokeWidth=3;" parent="WIyWlLk6GJQsqaUBKTNV-1" source="VztmP7jNm2-bDzNmiWcb-4" target="ZryX_eBv5wf3s4xxrK_H-9" edge="1">
          <mxGeometry relative="1" as="geometry">
            <Array as="points">
              <mxPoint x="910" y="20" />
              <mxPoint x="910" y="293" />
              <mxPoint x="825" y="293" />
            </Array>
          </mxGeometry>
        </mxCell>
        <mxCell id="VztmP7jNm2-bDzNmiWcb-4" value="Variants&lt;br&gt;Regions" style="shape=parallelogram;html=1;strokeWidth=2;perimeter=parallelogramPerimeter;whiteSpace=wrap;rounded=1;arcSize=12;size=0.23;fillColor=#fff2cc;strokeColor=#d6b656;fontStyle=1" parent="WIyWlLk6GJQsqaUBKTNV-1" vertex="1">
          <mxGeometry x="637" width="100" height="40" as="geometry" />
        </mxCell>
        <mxCell id="ZryX_eBv5wf3s4xxrK_H-14" value="" style="edgeStyle=orthogonalEdgeStyle;rounded=0;jumpSize=6;orthogonalLoop=1;jettySize=auto;html=1;shadow=0;strokeWidth=3;" parent="WIyWlLk6GJQsqaUBKTNV-1" source="VztmP7jNm2-bDzNmiWcb-6" target="ZryX_eBv5wf3s4xxrK_H-9" edge="1">
          <mxGeometry relative="1" as="geometry" />
        </mxCell>
        <mxCell id="ZryX_eBv5wf3s4xxrK_H-15" value="" style="edgeStyle=orthogonalEdgeStyle;rounded=0;jumpSize=6;orthogonalLoop=1;jettySize=auto;html=1;shadow=0;strokeWidth=3;" parent="WIyWlLk6GJQsqaUBKTNV-1" source="VztmP7jNm2-bDzNmiWcb-6" target="VztmP7jNm2-bDzNmiWcb-20" edge="1">
          <mxGeometry relative="1" as="geometry" />
        </mxCell>
        <mxCell id="VztmP7jNm2-bDzNmiWcb-6" value="&lt;div&gt;&lt;br&gt;&lt;/div&gt;&lt;div&gt;Reference Genome&lt;/div&gt;" style="strokeWidth=2;html=1;shape=mxgraph.flowchart.database;whiteSpace=wrap;fillColor=#ffe6cc;strokeColor=#d79b00;" parent="WIyWlLk6GJQsqaUBKTNV-1" vertex="1">
          <mxGeometry x="515" y="272.5" width="80" height="70" as="geometry" />
        </mxCell>
        <mxCell id="ZryX_eBv5wf3s4xxrK_H-16" value="" style="edgeStyle=orthogonalEdgeStyle;rounded=0;jumpSize=6;orthogonalLoop=1;jettySize=auto;html=1;shadow=0;strokeWidth=3;entryX=0.5;entryY=0;entryDx=0;entryDy=0;exitX=0.5;exitY=1;exitDx=0;exitDy=0;" parent="WIyWlLk6GJQsqaUBKTNV-1" source="VztmP7jNm2-bDzNmiWcb-17" target="VztmP7jNm2-bDzNmiWcb-20" edge="1">
          <mxGeometry relative="1" as="geometry">
            <Array as="points">
              <mxPoint x="420" y="220" />
              <mxPoint x="368" y="220" />
            </Array>
          </mxGeometry>
        </mxCell>
        <mxCell id="VztmP7jNm2-bDzNmiWcb-17" value="Regions centered" style="rounded=1;whiteSpace=wrap;html=1;absoluteArcSize=1;arcSize=14;strokeWidth=2;glass=0;fillColor=none;" parent="WIyWlLk6GJQsqaUBKTNV-1" vertex="1">
          <mxGeometry x="360" y="125" width="120" height="50" as="geometry" />
        </mxCell>
        <mxCell id="ZryX_eBv5wf3s4xxrK_H-19" style="edgeStyle=orthogonalEdgeStyle;rounded=0;jumpSize=6;orthogonalLoop=1;jettySize=auto;html=1;exitX=0.5;exitY=1;exitDx=0;exitDy=0;shadow=0;strokeWidth=3;entryX=0.5;entryY=0;entryDx=0;entryDy=0;" parent="WIyWlLk6GJQsqaUBKTNV-1" source="VztmP7jNm2-bDzNmiWcb-20" edge="1" target="ZryX_eBv5wf3s4xxrK_H-40">
          <mxGeometry relative="1" as="geometry">
            <mxPoint x="480" y="410" as="targetPoint" />
            <Array as="points">
              <mxPoint x="368" y="370" />
              <mxPoint x="368" y="370" />
              <mxPoint x="368" y="400" />
              <mxPoint x="368" y="400" />
            </Array>
          </mxGeometry>
        </mxCell>
        <mxCell id="VztmP7jNm2-bDzNmiWcb-20" value="Extract sequences" style="rounded=1;whiteSpace=wrap;html=1;absoluteArcSize=1;arcSize=14;strokeWidth=2;glass=0;fillColor=none;" parent="WIyWlLk6GJQsqaUBKTNV-1" vertex="1">
          <mxGeometry x="300" y="282.5" width="135" height="50" as="geometry" />
        </mxCell>
        <mxCell id="ZryX_eBv5wf3s4xxrK_H-20" style="edgeStyle=orthogonalEdgeStyle;rounded=0;jumpSize=6;orthogonalLoop=1;jettySize=auto;html=1;exitX=0.25;exitY=1;exitDx=0;exitDy=0;shadow=0;strokeWidth=3;entryX=0.75;entryY=0;entryDx=0;entryDy=0;" parent="WIyWlLk6GJQsqaUBKTNV-1" source="ZryX_eBv5wf3s4xxrK_H-9" edge="1" target="ZryX_eBv5wf3s4xxrK_H-40">
          <mxGeometry relative="1" as="geometry">
            <mxPoint x="480" y="410" as="targetPoint" />
            <Array as="points">
              <mxPoint x="688" y="370" />
              <mxPoint x="415" y="370" />
            </Array>
          </mxGeometry>
        </mxCell>
        <mxCell id="KMl1CAoWez4GiMPMboV8-3" value="Sequences" style="edgeLabel;html=1;align=center;verticalAlign=middle;resizable=0;points=[];" vertex="1" connectable="0" parent="ZryX_eBv5wf3s4xxrK_H-20">
          <mxGeometry x="-0.2634" y="3" relative="1" as="geometry">
            <mxPoint as="offset" />
          </mxGeometry>
        </mxCell>
        <mxCell id="KMl1CAoWez4GiMPMboV8-4" style="edgeStyle=orthogonalEdgeStyle;rounded=0;orthogonalLoop=1;jettySize=auto;html=1;strokeWidth=3;entryX=0.931;entryY=0;entryDx=0;entryDy=0;entryPerimeter=0;" edge="1" parent="WIyWlLk6GJQsqaUBKTNV-1" target="VztmP7jNm2-bDzNmiWcb-19">
          <mxGeometry relative="1" as="geometry">
            <mxPoint x="780" y="340" as="sourcePoint" />
            <mxPoint x="750" y="450" as="targetPoint" />
            <Array as="points" />
          </mxGeometry>
        </mxCell>
        <mxCell id="KMl1CAoWez4GiMPMboV8-5" value="&lt;div&gt;Regions&lt;/div&gt;" style="edgeLabel;html=1;align=center;verticalAlign=middle;resizable=0;points=[];" vertex="1" connectable="0" parent="KMl1CAoWez4GiMPMboV8-4">
          <mxGeometry x="-0.2403" y="5" relative="1" as="geometry">
            <mxPoint as="offset" />
          </mxGeometry>
        </mxCell>
        <mxCell id="ZryX_eBv5wf3s4xxrK_H-9" value="Map variants&lt;br&gt;&amp;amp; Extract sequences" style="rounded=1;whiteSpace=wrap;html=1;absoluteArcSize=1;arcSize=14;strokeWidth=3;fillColor=none;" parent="WIyWlLk6GJQsqaUBKTNV-1" vertex="1">
          <mxGeometry x="642" y="277.5" width="183" height="60" as="geometry" />
        </mxCell>
        <mxCell id="ZryX_eBv5wf3s4xxrK_H-13" value="" style="edgeStyle=orthogonalEdgeStyle;rounded=0;jumpSize=6;orthogonalLoop=1;jettySize=auto;html=1;shadow=0;strokeWidth=3;exitX=0.627;exitY=1.007;exitDx=0;exitDy=0;exitPerimeter=0;" parent="WIyWlLk6GJQsqaUBKTNV-1" source="VztmP7jNm2-bDzNmiWcb-14" target="ZryX_eBv5wf3s4xxrK_H-9" edge="1">
          <mxGeometry relative="1" as="geometry">
            <mxPoint x="760" y="260" as="sourcePoint" />
          </mxGeometry>
        </mxCell>
        <mxCell id="ZryX_eBv5wf3s4xxrK_H-34" value="" style="group" parent="WIyWlLk6GJQsqaUBKTNV-1" vertex="1" connectable="0">
          <mxGeometry x="224.5" y="790" width="528" height="110" as="geometry" />
        </mxCell>
        <mxCell id="ZryX_eBv5wf3s4xxrK_H-29" value="Output" style="rounded=0;whiteSpace=wrap;html=1;strokeColor=#9673a6;strokeWidth=3;fillColor=#e1d5e7;verticalAlign=top;fontStyle=1" parent="ZryX_eBv5wf3s4xxrK_H-34" vertex="1">
          <mxGeometry width="528" height="110" as="geometry" />
        </mxCell>
        <mxCell id="ZryX_eBv5wf3s4xxrK_H-23" value="design.fa.gz" style="strokeWidth=2;html=1;shape=mxgraph.flowchart.document2;whiteSpace=wrap;size=0.25;strokeColor=#000000;fillColor=none;" parent="ZryX_eBv5wf3s4xxrK_H-34" vertex="1">
          <mxGeometry x="18" y="34" width="100" height="60" as="geometry" />
        </mxCell>
        <mxCell id="ZryX_eBv5wf3s4xxrK_H-24" value="regions.bed.gz" style="strokeWidth=2;html=1;shape=mxgraph.flowchart.document2;whiteSpace=wrap;size=0.25;strokeColor=#000000;fillColor=none;" parent="ZryX_eBv5wf3s4xxrK_H-34" vertex="1">
          <mxGeometry x="136" y="34" width="100" height="60" as="geometry" />
        </mxCell>
        <mxCell id="ZryX_eBv5wf3s4xxrK_H-25" value="variants.vcf.gz" style="strokeWidth=2;html=1;shape=mxgraph.flowchart.document2;whiteSpace=wrap;size=0.25;strokeColor=#000000;fillColor=none;" parent="ZryX_eBv5wf3s4xxrK_H-34" vertex="1">
          <mxGeometry x="253" y="34" width="100" height="60" as="geometry" />
        </mxCell>
        <mxCell id="ZryX_eBv5wf3s4xxrK_H-26" value="variant_region_map.gz" style="strokeWidth=2;html=1;shape=mxgraph.flowchart.document2;whiteSpace=wrap;size=0.25;strokeColor=#000000;fillColor=none;" parent="ZryX_eBv5wf3s4xxrK_H-34" vertex="1">
          <mxGeometry x="371" y="34" width="148" height="60" as="geometry" />
        </mxCell>
        <mxCell id="ZryX_eBv5wf3s4xxrK_H-37" style="edgeStyle=orthogonalEdgeStyle;rounded=0;jumpSize=6;orthogonalLoop=1;jettySize=auto;html=1;exitX=0;exitY=0.25;exitDx=0;exitDy=0;shadow=0;strokeWidth=3;entryX=1;entryY=0.719;entryDx=0;entryDy=0;entryPerimeter=0;" parent="WIyWlLk6GJQsqaUBKTNV-1" source="ZryX_eBv5wf3s4xxrK_H-36" target="ZryX_eBv5wf3s4xxrK_H-9" edge="1">
          <mxGeometry relative="1" as="geometry">
            <mxPoint x="870" y="320" as="targetPoint" />
            <Array as="points" />
          </mxGeometry>
        </mxCell>
        <mxCell id="ZryX_eBv5wf3s4xxrK_H-38" style="edgeStyle=orthogonalEdgeStyle;rounded=0;jumpSize=6;orthogonalLoop=1;jettySize=auto;html=1;exitX=0.5;exitY=1;exitDx=0;exitDy=0;entryX=1.004;entryY=0.415;entryDx=0;entryDy=0;entryPerimeter=0;shadow=0;strokeWidth=3;" parent="WIyWlLk6GJQsqaUBKTNV-1" source="ZryX_eBv5wf3s4xxrK_H-36" target="VztmP7jNm2-bDzNmiWcb-19" edge="1">
          <mxGeometry relative="1" as="geometry">
            <Array as="points">
              <mxPoint x="960" y="600" />
            </Array>
          </mxGeometry>
        </mxCell>
        <mxCell id="ZryX_eBv5wf3s4xxrK_H-39" style="edgeStyle=orthogonalEdgeStyle;rounded=0;jumpSize=6;orthogonalLoop=1;jettySize=auto;html=1;exitX=0.5;exitY=0;exitDx=0;exitDy=0;entryX=1;entryY=0.5;entryDx=0;entryDy=0;shadow=0;strokeWidth=3;" parent="WIyWlLk6GJQsqaUBKTNV-1" source="ZryX_eBv5wf3s4xxrK_H-36" target="VztmP7jNm2-bDzNmiWcb-14" edge="1">
          <mxGeometry relative="1" as="geometry" />
        </mxCell>
        <mxCell id="ZryX_eBv5wf3s4xxrK_H-44" style="edgeStyle=orthogonalEdgeStyle;rounded=0;jumpSize=6;orthogonalLoop=1;jettySize=auto;html=1;exitX=0.5;exitY=1;exitDx=0;exitDy=0;entryX=1;entryY=0.5;entryDx=0;entryDy=0;shadow=0;strokeWidth=3;" parent="WIyWlLk6GJQsqaUBKTNV-1" source="ZryX_eBv5wf3s4xxrK_H-36" target="ZryX_eBv5wf3s4xxrK_H-40" edge="1">
          <mxGeometry relative="1" as="geometry" />
        </mxCell>
        <mxCell id="ZryX_eBv5wf3s4xxrK_H-36" value="Config file" style="shape=parallelogram;html=1;strokeWidth=2;perimeter=parallelogramPerimeter;whiteSpace=wrap;rounded=1;arcSize=12;size=0.23;fillColor=#fff2cc;strokeColor=#d6b656;fontStyle=1" parent="WIyWlLk6GJQsqaUBKTNV-1" vertex="1">
          <mxGeometry x="910" y="307.5" width="100" height="40" as="geometry" />
        </mxCell>
        <mxCell id="KMl1CAoWez4GiMPMboV8-1" value="" style="edgeStyle=orthogonalEdgeStyle;rounded=0;orthogonalLoop=1;jettySize=auto;html=1;entryX=0.321;entryY=0;entryDx=0;entryDy=0;entryPerimeter=0;strokeWidth=3;" edge="1" parent="WIyWlLk6GJQsqaUBKTNV-1" source="ZryX_eBv5wf3s4xxrK_H-40" target="VztmP7jNm2-bDzNmiWcb-19">
          <mxGeometry relative="1" as="geometry" />
        </mxCell>
        <mxCell id="ZryX_eBv5wf3s4xxrK_H-40" value="Add adapters" style="rounded=1;whiteSpace=wrap;html=1;absoluteArcSize=1;arcSize=14;strokeWidth=2;glass=0;fillColor=none;" parent="WIyWlLk6GJQsqaUBKTNV-1" vertex="1">
          <mxGeometry x="272.5" y="410" width="190" height="50" as="geometry" />
        </mxCell>
        <mxCell id="ZryX_eBv5wf3s4xxrK_H-73" value="" style="group" parent="WIyWlLk6GJQsqaUBKTNV-1" vertex="1" connectable="0">
          <mxGeometry x="750" y="136.5" width="110" height="80" as="geometry" />
        </mxCell>
        <mxCell id="VztmP7jNm2-bDzNmiWcb-11" value="Multiple tiles&lt;br&gt;(centerd)" style="rounded=1;whiteSpace=wrap;html=1;absoluteArcSize=1;arcSize=14;strokeWidth=2;align=center;verticalAlign=top;" parent="ZryX_eBv5wf3s4xxrK_H-73" vertex="1">
          <mxGeometry width="110" height="80" as="geometry" />
        </mxCell>
        <mxCell id="ZryX_eBv5wf3s4xxrK_H-72" value="" style="group" parent="ZryX_eBv5wf3s4xxrK_H-73" vertex="1" connectable="0">
          <mxGeometry x="5.5" y="38.5" width="101" height="38.5" as="geometry" />
        </mxCell>
        <mxCell id="ZryX_eBv5wf3s4xxrK_H-60" value="" style="rounded=0;whiteSpace=wrap;html=1;strokeColor=none;strokeWidth=3;fillColor=#000000;" parent="ZryX_eBv5wf3s4xxrK_H-72" vertex="1">
          <mxGeometry x="5" width="90" height="10" as="geometry" />
        </mxCell>
        <mxCell id="ZryX_eBv5wf3s4xxrK_H-65" value="" style="rounded=0;whiteSpace=wrap;html=1;strokeColor=none;strokeWidth=3;fillColor=#27d123;" parent="ZryX_eBv5wf3s4xxrK_H-72" vertex="1">
          <mxGeometry y="15" width="40" height="10" as="geometry" />
        </mxCell>
        <mxCell id="ZryX_eBv5wf3s4xxrK_H-66" value="" style="rounded=0;whiteSpace=wrap;html=1;strokeColor=none;strokeWidth=3;fillColor=#27d123;" parent="ZryX_eBv5wf3s4xxrK_H-72" vertex="1">
          <mxGeometry x="61" y="15" width="40" height="10" as="geometry" />
        </mxCell>
        <mxCell id="ZryX_eBv5wf3s4xxrK_H-67" value="" style="rounded=0;whiteSpace=wrap;html=1;strokeColor=none;strokeWidth=3;fillColor=#27d123;" parent="ZryX_eBv5wf3s4xxrK_H-72" vertex="1">
          <mxGeometry x="32" y="28.5" width="40" height="10" as="geometry" />
        </mxCell>
        <mxCell id="ZryX_eBv5wf3s4xxrK_H-74" value="" style="group" parent="WIyWlLk6GJQsqaUBKTNV-1" vertex="1" connectable="0">
          <mxGeometry x="635" y="136.5" width="90" height="80" as="geometry" />
        </mxCell>
        <mxCell id="VztmP7jNm2-bDzNmiWcb-10" value="&lt;div&gt;2 tiles&lt;/div&gt;&lt;div&gt;(left/right&lt;br&gt;&lt;/div&gt;" style="rounded=1;whiteSpace=wrap;html=1;absoluteArcSize=1;arcSize=14;strokeWidth=2;align=center;verticalAlign=top;" parent="ZryX_eBv5wf3s4xxrK_H-74" vertex="1">
          <mxGeometry width="90" height="80" as="geometry" />
        </mxCell>
        <mxCell id="ZryX_eBv5wf3s4xxrK_H-71" value="" style="group" parent="ZryX_eBv5wf3s4xxrK_H-74" vertex="1" connectable="0">
          <mxGeometry x="15" y="38.5" width="60" height="38.5" as="geometry" />
        </mxCell>
        <mxCell id="ZryX_eBv5wf3s4xxrK_H-59" value="" style="rounded=0;whiteSpace=wrap;html=1;strokeColor=none;strokeWidth=3;fillColor=#000000;" parent="ZryX_eBv5wf3s4xxrK_H-71" vertex="1">
          <mxGeometry width="60" height="10" as="geometry" />
        </mxCell>
        <mxCell id="ZryX_eBv5wf3s4xxrK_H-63" value="" style="rounded=0;whiteSpace=wrap;html=1;strokeColor=none;strokeWidth=3;fillColor=#27d123;" parent="ZryX_eBv5wf3s4xxrK_H-71" vertex="1">
          <mxGeometry y="15" width="40" height="10" as="geometry" />
        </mxCell>
        <mxCell id="ZryX_eBv5wf3s4xxrK_H-64" value="" style="rounded=0;whiteSpace=wrap;html=1;strokeColor=none;strokeWidth=3;fillColor=#27d123;" parent="ZryX_eBv5wf3s4xxrK_H-71" vertex="1">
          <mxGeometry x="20" y="28.5" width="40" height="10" as="geometry" />
        </mxCell>
        <mxCell id="ZryX_eBv5wf3s4xxrK_H-76" value="" style="group" parent="WIyWlLk6GJQsqaUBKTNV-1" vertex="1" connectable="0">
          <mxGeometry x="520" y="136.5" width="90" height="80" as="geometry" />
        </mxCell>
        <mxCell id="VztmP7jNm2-bDzNmiWcb-9" value="&lt;div align=&quot;center&quot;&gt;Centering&lt;/div&gt;" style="rounded=1;whiteSpace=wrap;html=1;absoluteArcSize=1;arcSize=14;strokeWidth=2;align=center;verticalAlign=top;" parent="ZryX_eBv5wf3s4xxrK_H-76" vertex="1">
          <mxGeometry width="90" height="80" as="geometry" />
        </mxCell>
        <mxCell id="ZryX_eBv5wf3s4xxrK_H-69" value="" style="group" parent="ZryX_eBv5wf3s4xxrK_H-76" vertex="1" connectable="0">
          <mxGeometry x="20" y="38.5" width="50" height="25" as="geometry" />
        </mxCell>
        <mxCell id="ZryX_eBv5wf3s4xxrK_H-75" value="" style="group" parent="ZryX_eBv5wf3s4xxrK_H-69" vertex="1" connectable="0">
          <mxGeometry width="50" height="25" as="geometry" />
        </mxCell>
        <mxCell id="ZryX_eBv5wf3s4xxrK_H-58" value="" style="rounded=0;whiteSpace=wrap;html=1;strokeColor=none;strokeWidth=3;fillColor=#000000;" parent="ZryX_eBv5wf3s4xxrK_H-75" vertex="1">
          <mxGeometry width="50" height="10" as="geometry" />
        </mxCell>
        <mxCell id="ZryX_eBv5wf3s4xxrK_H-61" value="" style="rounded=0;whiteSpace=wrap;html=1;strokeColor=none;strokeWidth=3;fillColor=#27d123;" parent="ZryX_eBv5wf3s4xxrK_H-75" vertex="1">
          <mxGeometry x="6" y="15" width="40" height="10" as="geometry" />
        </mxCell>
        <mxCell id="E1davcEtPNMCU661CWaY-0" value="" style="group" vertex="1" connectable="0" parent="WIyWlLk6GJQsqaUBKTNV-1">
          <mxGeometry x="150" y="490" width="677" height="265" as="geometry" />
        </mxCell>
        <mxCell id="VztmP7jNm2-bDzNmiWcb-19" value="Filter" style="rounded=1;whiteSpace=wrap;html=1;absoluteArcSize=1;arcSize=14;strokeWidth=2;glass=0;fillColor=#d5e8d4;verticalAlign=top;strokeColor=#82b366;fontStyle=1" parent="E1davcEtPNMCU661CWaY-0" vertex="1">
          <mxGeometry width="677" height="265" as="geometry" />
        </mxCell>
        <mxCell id="ZryX_eBv5wf3s4xxrK_H-1" value="Sequence" style="rounded=1;whiteSpace=wrap;html=1;absoluteArcSize=1;arcSize=14;strokeWidth=2;fillColor=none;verticalAlign=top;fontStyle=1" parent="E1davcEtPNMCU661CWaY-0" vertex="1">
          <mxGeometry x="12" y="25" width="260" height="120" as="geometry" />
        </mxCell>
        <mxCell id="ZryX_eBv5wf3s4xxrK_H-0" value="Region" style="rounded=1;whiteSpace=wrap;html=1;absoluteArcSize=1;arcSize=14;strokeWidth=2;fillColor=none;verticalAlign=top;fontStyle=1" parent="E1davcEtPNMCU661CWaY-0" vertex="1">
          <mxGeometry x="279" y="25" width="375" height="220" as="geometry" />
        </mxCell>
        <mxCell id="VztmP7jNm2-bDzNmiWcb-8" value="&lt;br&gt;&lt;div&gt;Genecode&lt;/div&gt;v42" style="strokeWidth=2;html=1;shape=mxgraph.flowchart.database;whiteSpace=wrap;fillColor=#ffe6cc;strokeColor=#d79b00;" parent="E1davcEtPNMCU661CWaY-0" vertex="1">
          <mxGeometry x="423" y="157" width="80" height="70" as="geometry" />
        </mxCell>
        <mxCell id="VztmP7jNm2-bDzNmiWcb-25" value="CTCF overlap" style="rounded=1;whiteSpace=wrap;html=1;absoluteArcSize=1;arcSize=14;strokeWidth=2;glass=0;" parent="E1davcEtPNMCU661CWaY-0" vertex="1">
          <mxGeometry x="540" y="55" width="100" height="70" as="geometry" />
        </mxCell>
        <mxCell id="VztmP7jNm2-bDzNmiWcb-26" value="Homopolymer" style="rounded=1;whiteSpace=wrap;html=1;absoluteArcSize=1;arcSize=14;strokeWidth=2;glass=0;" parent="E1davcEtPNMCU661CWaY-0" vertex="1">
          <mxGeometry x="30" y="55" width="100" height="70" as="geometry" />
        </mxCell>
        <mxCell id="VztmP7jNm2-bDzNmiWcb-27" value="Restriction site&lt;br&gt;EcoRI/SbfI " style="rounded=1;whiteSpace=wrap;html=1;absoluteArcSize=1;arcSize=14;strokeWidth=2;glass=0;" parent="E1davcEtPNMCU661CWaY-0" vertex="1">
          <mxGeometry x="158" y="55" width="100" height="70" as="geometry" />
        </mxCell>
        <mxCell id="VztmP7jNm2-bDzNmiWcb-28" value="Simple repeats" style="rounded=1;whiteSpace=wrap;html=1;absoluteArcSize=1;arcSize=14;strokeWidth=2;glass=0;" parent="E1davcEtPNMCU661CWaY-0" vertex="1">
          <mxGeometry x="285" y="55" width="100" height="70" as="geometry" />
        </mxCell>
        <mxCell id="VztmP7jNm2-bDzNmiWcb-29" value="TSS overlap" style="rounded=1;whiteSpace=wrap;html=1;absoluteArcSize=1;arcSize=14;strokeWidth=2;glass=0;" parent="E1davcEtPNMCU661CWaY-0" vertex="1">
          <mxGeometry x="413" y="55" width="100" height="70" as="geometry" />
        </mxCell>
        <mxCell id="ZryX_eBv5wf3s4xxrK_H-5" value="" style="edgeStyle=orthogonalEdgeStyle;rounded=0;orthogonalLoop=1;jettySize=auto;html=1;" parent="E1davcEtPNMCU661CWaY-0" source="VztmP7jNm2-bDzNmiWcb-8" target="VztmP7jNm2-bDzNmiWcb-29" edge="1">
          <mxGeometry relative="1" as="geometry" />
        </mxCell>
        <mxCell id="ZryX_eBv5wf3s4xxrK_H-6" value="" style="edgeStyle=orthogonalEdgeStyle;rounded=0;orthogonalLoop=1;jettySize=auto;html=1;" parent="E1davcEtPNMCU661CWaY-0" source="ZryX_eBv5wf3s4xxrK_H-2" target="VztmP7jNm2-bDzNmiWcb-25" edge="1">
          <mxGeometry relative="1" as="geometry" />
        </mxCell>
        <mxCell id="ZryX_eBv5wf3s4xxrK_H-2" value="&lt;div&gt;&lt;br&gt;&lt;/div&gt;&lt;div&gt;TODO&lt;/div&gt;" style="strokeWidth=2;html=1;shape=mxgraph.flowchart.database;whiteSpace=wrap;fillColor=#ffe6cc;strokeColor=#d79b00;" parent="E1davcEtPNMCU661CWaY-0" vertex="1">
          <mxGeometry x="550" y="157" width="80" height="70" as="geometry" />
        </mxCell>
        <mxCell id="ZryX_eBv5wf3s4xxrK_H-4" style="edgeStyle=orthogonalEdgeStyle;rounded=0;orthogonalLoop=1;jettySize=auto;html=1;entryX=0.5;entryY=1;entryDx=0;entryDy=0;" parent="E1davcEtPNMCU661CWaY-0" source="ZryX_eBv5wf3s4xxrK_H-3" target="VztmP7jNm2-bDzNmiWcb-28" edge="1">
          <mxGeometry relative="1" as="geometry">
            <mxPoint x="370" y="135" as="targetPoint" />
          </mxGeometry>
        </mxCell>
        <mxCell id="ZryX_eBv5wf3s4xxrK_H-3" value="&lt;div&gt;&lt;br&gt;&lt;/div&gt;&lt;div&gt;UCSC simple repeats&lt;/div&gt;" style="strokeWidth=2;html=1;shape=mxgraph.flowchart.database;whiteSpace=wrap;fillColor=#ffe6cc;strokeColor=#d79b00;" parent="E1davcEtPNMCU661CWaY-0" vertex="1">
          <mxGeometry x="295" y="157" width="80" height="70" as="geometry" />
        </mxCell>
        <mxCell id="KMl1CAoWez4GiMPMboV8-6" style="edgeStyle=orthogonalEdgeStyle;rounded=0;orthogonalLoop=1;jettySize=auto;html=1;exitX=0.5;exitY=1;exitDx=0;exitDy=0;strokeWidth=3;" edge="1" parent="WIyWlLk6GJQsqaUBKTNV-1" source="VztmP7jNm2-bDzNmiWcb-19" target="ZryX_eBv5wf3s4xxrK_H-29">
          <mxGeometry relative="1" as="geometry" />
        </mxCell>
      </root>
    </mxGraphModel>
  </diagram>
</mxfile>
